<svg width="534" height="129" viewBox="0 0 534 129" fill="none" xmlns="http://www.w3.org/2000/svg">
<g opacity="0.5">
<path d="M524.5 40C524.5 42.5234 522.82 45.0897 519.368 47.6604C515.929 50.2218 510.824 52.7137 504.202 55.0994C490.964 59.8687 471.78 64.1725 448.04 67.79C400.569 75.0237 334.97 79.5 262.5 79.5C190.03 79.5 124.431 75.0237 76.9598 67.79C53.2202 64.1725 34.0362 59.8687 20.798 55.0994C14.176 52.7137 9.07137 50.2218 5.6317 47.6604C2.17963 45.0897 0.5 42.5234 0.5 40C0.5 37.4766 2.17963 34.9103 5.6317 32.3396C9.07137 29.7782 14.176 27.2863 20.798 24.9006C34.0362 20.1313 53.2202 15.8275 76.9598 12.21C124.431 4.97629 190.03 0.5 262.5 0.5C334.97 0.5 400.569 4.97629 448.04 12.21C471.78 15.8275 490.964 20.1313 504.202 24.9006C510.824 27.2863 515.929 29.7782 519.368 32.3396C522.82 34.9103 524.5 37.4766 524.5 40Z" stroke="#E5E5E5"/>
<path d="M524.5 51C524.5 53.5234 522.82 56.0897 519.368 58.6604C515.929 61.2218 510.824 63.7137 504.202 66.0994C490.964 70.8687 471.78 75.1725 448.04 78.79C400.569 86.0237 334.97 90.5 262.5 90.5C190.03 90.5 124.431 86.0237 76.9598 78.79C53.2202 75.1725 34.0362 70.8687 20.798 66.0994C14.176 63.7137 9.07137 61.2218 5.6317 58.6604C2.17963 56.0897 0.5 53.5234 0.5 51C0.5 48.4766 2.17963 45.9103 5.6317 43.3396C9.07137 40.7782 14.176 38.2863 20.798 35.9006C34.0362 31.1313 53.2202 26.8275 76.9598 23.21C124.431 15.9763 190.03 11.5 262.5 11.5C334.97 11.5 400.569 15.9763 448.04 23.21C471.78 26.8275 490.964 31.1313 504.202 35.9006C510.824 38.2863 515.929 40.7782 519.368 43.3396C522.82 45.9103 524.5 48.4766 524.5 51Z" stroke="#E5E5E5"/>
<path d="M524.5 65C524.5 67.5234 522.82 70.0897 519.368 72.6604C515.929 75.2218 510.824 77.7137 504.202 80.0994C490.964 84.8687 471.78 89.1725 448.04 92.79C400.569 100.024 334.97 104.5 262.5 104.5C190.03 104.5 124.431 100.024 76.9598 92.79C53.2202 89.1725 34.0362 84.8687 20.798 80.0994C14.176 77.7137 9.07137 75.2218 5.6317 72.6604C2.17963 70.0897 0.5 67.5234 0.5 65C0.5 62.4766 2.17963 59.9103 5.6317 57.3396C9.07137 54.7782 14.176 52.2863 20.798 49.9006C34.0362 45.1313 53.2202 40.8275 76.9598 37.21C124.431 29.9763 190.03 25.5 262.5 25.5C334.97 25.5 400.569 29.9763 448.04 37.21C471.78 40.8275 490.964 45.1313 504.202 49.9006C510.824 52.2863 515.929 54.7782 519.368 57.3396C522.82 59.9103 524.5 62.4766 524.5 65Z" stroke="#E5E5E5"/>
<path d="M524.5 77C524.5 79.5234 522.82 82.0897 519.368 84.6604C515.929 87.2218 510.824 89.7137 504.202 92.0994C490.964 96.8687 471.78 101.173 448.04 104.79C400.569 112.024 334.97 116.5 262.5 116.5C190.03 116.5 124.431 112.024 76.9598 104.79C53.2202 101.173 34.0362 96.8687 20.798 92.0994C14.176 89.7137 9.07137 87.2218 5.6317 84.6604C2.17963 82.0897 0.5 79.5234 0.5 77C0.5 74.4766 2.17963 71.9103 5.6317 69.3396C9.07137 66.7782 14.176 64.2863 20.798 61.9006C34.0362 57.1313 53.2202 52.8275 76.9598 49.21C124.431 41.9763 190.03 37.5 262.5 37.5C334.97 37.5 400.569 41.9763 448.04 49.21C471.78 52.8275 490.964 57.1313 504.202 61.9006C510.824 64.2863 515.929 66.7782 519.368 69.3396C522.82 71.9103 524.5 74.4766 524.5 77Z" stroke="#E5E5E5"/>
<path d="M524.5 89C524.5 91.5234 522.82 94.0897 519.368 96.6604C515.929 99.2218 510.824 101.714 504.202 104.099C490.964 108.869 471.78 113.173 448.04 116.79C400.569 124.024 334.97 128.5 262.5 128.5C190.03 128.5 124.431 124.024 76.9598 116.79C53.2202 113.173 34.0362 108.869 20.798 104.099C14.176 101.714 9.07137 99.2218 5.6317 96.6604C2.17963 94.0897 0.5 91.5234 0.5 89C0.5 86.4766 2.17963 83.9103 5.6317 81.3396C9.07137 78.7782 14.176 76.2863 20.798 73.9006C34.0362 69.1313 53.2202 64.8275 76.9598 61.21C124.431 53.9763 190.03 49.5 262.5 49.5C334.97 49.5 400.569 53.9763 448.04 61.21C471.78 64.8275 490.964 69.1313 504.202 73.9006C510.824 76.2863 515.929 78.7782 519.368 81.3396C522.82 83.9103 524.5 86.4766 524.5 89Z" stroke="#E5E5E5"/>
</g>
</svg>
