<svg width="26" height="165" viewBox="0 0 26 165" fill="none" xmlns="http://www.w3.org/2000/svg">
<path d="M2.584 13.856L11.656 0.284L14.248 0.284L23.32 13.856H19.972L13.024 3.344H12.88L5.932 13.856L2.584 13.856ZM0.568 29.7899C0.568 27.7979 1.036 26.0219 1.972 24.4619C2.932 22.9019 4.324 21.6659 6.148 20.7539C7.972 19.8659 10.168 19.4219 12.736 19.4219C15.304 19.4219 17.5 19.8779 19.324 20.7899C21.172 21.7019 22.576 22.9499 23.536 24.5339C24.52 26.1419 25.012 27.9539 25.012 29.9699C25.012 31.5539 24.7 32.8739 24.076 33.9299C23.476 35.0099 22.816 35.8979 22.096 36.5939L19.828 34.5779C20.428 34.0259 20.92 33.3899 21.304 32.6699C21.688 31.9499 21.88 31.0499 21.88 29.9699C21.88 28.6259 21.508 27.4379 20.764 26.4059C20.044 25.3739 19.012 24.5699 17.668 23.9939C16.324 23.4179 14.716 23.1299 12.844 23.1299C10.972 23.1299 9.352 23.3939 7.984 23.9219C6.616 24.4739 5.56 25.2539 4.816 26.2619C4.072 27.2939 3.7 28.5419 3.7 30.0059C3.7 30.7259 3.808 31.4099 4.024 32.0579C4.24 32.7059 4.54 33.2219 4.924 33.6059H10.54V29.2499H13.492V36.9179H3.34C2.572 36.1499 1.912 35.1419 1.36 33.8939C0.832 32.6699 0.568 31.3019 0.568 29.7899ZM1 44.1399L18.604 44.1399V47.0919L14.5 47.3799V47.4879C15.94 48.3999 17.056 49.5159 17.848 50.8359C18.64 52.1559 19.036 53.5959 19.036 55.1559C19.036 55.8279 18.976 56.4399 18.856 56.9919C18.736 57.5439 18.556 58.0839 18.316 58.6119L15.256 57.8199C15.472 57.2199 15.616 56.7039 15.688 56.2719C15.784 55.8399 15.832 55.2879 15.832 54.6159C15.832 53.3439 15.472 52.1199 14.752 50.9439C14.032 49.7679 12.784 48.6879 11.008 47.7039H1V44.1399ZM0.568 72.6378C0.568 70.8618 0.928 69.2418 1.648 67.7778C2.368 66.3378 3.424 65.1978 4.816 64.3578C6.208 63.5178 7.876 63.0978 9.82 63.0978C11.74 63.0978 13.384 63.5178 14.752 64.3578C16.12 65.2218 17.176 66.3378 17.92 67.7058C18.664 69.0738 19.036 70.5378 19.036 72.0978C19.036 73.8258 18.676 75.2898 17.956 76.4898C17.26 77.6898 16.288 78.6018 15.04 79.2258C13.816 79.8738 12.376 80.1978 10.72 80.1978C10.36 80.1978 10 80.1858 9.64 80.1618C9.304 80.1378 9.016 80.1018 8.776 80.0538L8.776 65.5818H11.404L11.404 77.8218L10.54 77.0298C12.436 77.0298 13.852 76.5978 14.788 75.7338C15.748 74.8698 16.228 73.6938 16.228 72.2058C16.228 71.1738 15.976 70.2258 15.472 69.3618C14.992 68.5218 14.272 67.8498 13.312 67.3458C12.376 66.8418 11.212 66.5898 9.82 66.5898C8.38 66.5898 7.18 66.8658 6.22 67.4178C5.284 67.9938 4.576 68.7618 4.096 69.7218C3.616 70.7058 3.376 71.8338 3.376 73.1058C3.376 74.0898 3.508 74.9898 3.772 75.8058C4.06 76.6218 4.444 77.4258 4.924 78.2178L2.656 79.4778C2.056 78.5898 1.552 77.5698 1.144 76.4178C0.76 75.2658 0.568 74.0058 0.568 72.6378ZM1 85.3318H24.58V91.3078C24.58 93.6598 24.136 95.6518 23.248 97.2838C22.36 98.9398 21.04 100.2 19.288 101.064C17.56 101.928 15.424 102.36 12.88 102.36C10.336 102.36 8.176 101.928 6.4 101.064C4.624 100.2 3.28 98.9638 2.368 97.3558C1.456 95.7478 1 93.7918 1 91.4878V85.3318ZM3.916 88.9318V91.0918C3.916 92.7478 4.252 94.1278 4.924 95.2318C5.62 96.3598 6.628 97.2118 7.948 97.7878C9.268 98.3638 10.912 98.6518 12.88 98.6518C14.848 98.6518 16.48 98.3638 17.776 97.7878C19.072 97.2118 20.044 96.3598 20.692 95.2318C21.34 94.1278 21.664 92.7478 21.664 91.0918V88.9318H3.916ZM0.568 115.81C0.568 114.034 0.928 112.414 1.648 110.95C2.368 109.51 3.424 108.37 4.816 107.53C6.208 106.69 7.876 106.27 9.82 106.27C11.74 106.27 13.384 106.69 14.752 107.53C16.12 108.394 17.176 109.51 17.92 110.878C18.664 112.246 19.036 113.71 19.036 115.27C19.036 116.998 18.676 118.462 17.956 119.662C17.26 120.862 16.288 121.774 15.04 122.398C13.816 123.046 12.376 123.37 10.72 123.37C10.36 123.37 10 123.358 9.64 123.334C9.304 123.31 9.016 123.274 8.776 123.226L8.776 108.754H11.404L11.404 120.994L10.54 120.202C12.436 120.202 13.852 119.77 14.788 118.906C15.748 118.042 16.228 116.866 16.228 115.378C16.228 114.346 15.976 113.398 15.472 112.534C14.992 111.694 14.272 111.022 13.312 110.518C12.376 110.014 11.212 109.762 9.82 109.762C8.38 109.762 7.18 110.038 6.22 110.59C5.284 111.166 4.576 111.934 4.096 112.894C3.616 113.878 3.376 115.006 3.376 116.278C3.376 117.262 3.508 118.162 3.772 118.978C4.06 119.794 4.444 120.598 4.924 121.39L2.656 122.65C2.056 121.762 1.552 120.742 1.144 119.59C0.76 118.438 0.568 117.178 0.568 115.81ZM1 134.372L18.604 127.172V130.772L9.028 134.48C8.164 134.816 7.288 135.14 6.4 135.452C5.536 135.764 4.672 136.064 3.808 136.352V136.496C4.672 136.808 5.536 137.108 6.4 137.396C7.288 137.684 8.164 137.996 9.028 138.332L18.604 142.04V145.46L1 138.404V134.372ZM2.584 150.846H5.932L12.88 161.358H13.024L19.972 150.846H23.32L14.248 164.418H11.656L2.584 150.846Z" fill="#E5E5E5"/>
</svg>
