<svg width="138" height="22" viewBox="0 0 138 22" fill="none" xmlns="http://www.w3.org/2000/svg">
<path d="M11.88 19.68L0.57 12.12V9.96L11.88 2.4V5.19L3.12 10.98V11.1L11.88 16.89V19.68ZM25.1583 21.36C23.4983 21.36 22.0183 20.97 20.7183 20.19C19.4183 19.39 18.3883 18.23 17.6283 16.71C16.8883 15.19 16.5183 13.36 16.5183 11.22C16.5183 9.08 16.8983 7.25 17.6583 5.73C18.4183 4.19 19.4583 3.02 20.7783 2.22C22.1183 1.4 23.6283 0.989998 25.3083 0.989998C26.6283 0.989998 27.7283 1.25 28.6083 1.77C29.5083 2.27 30.2483 2.82 30.8283 3.42L29.1483 5.31C28.6883 4.81 28.1583 4.4 27.5583 4.08C26.9583 3.76 26.2083 3.6 25.3083 3.6C24.1883 3.6 23.1983 3.91 22.3383 4.53C21.4783 5.13 20.8083 5.99 20.3283 7.11C19.8483 8.23 19.6083 9.57 19.6083 11.13C19.6083 12.69 19.8283 14.04 20.2683 15.18C20.7283 16.32 21.3783 17.2 22.2183 17.82C23.0783 18.44 24.1183 18.75 25.3383 18.75C25.9383 18.75 26.5083 18.66 27.0483 18.48C27.5883 18.3 28.0183 18.05 28.3383 17.73V13.05H24.7083V10.59H31.0983V19.05C30.4583 19.69 29.6183 20.24 28.5783 20.7C27.5583 21.14 26.4183 21.36 25.1583 21.36ZM37.1166 21V6.33H39.5766L39.8166 9.75H39.9066C40.6666 8.55 41.5966 7.62 42.6966 6.96C43.7966 6.3 44.9966 5.97 46.2966 5.97C46.8566 5.97 47.3666 6.02 47.8266 6.12C48.2866 6.22 48.7366 6.37 49.1766 6.57L48.5166 9.12C48.0166 8.94 47.5866 8.82 47.2266 8.76C46.8666 8.68 46.4066 8.64 45.8466 8.64C44.7866 8.64 43.7666 8.94 42.7866 9.54C41.8066 10.14 40.9066 11.18 40.0866 12.66V21H37.1166ZM60.8648 21.36C59.3848 21.36 58.0348 21.06 56.8148 20.46C55.6148 19.86 54.6648 18.98 53.9648 17.82C53.2648 16.66 52.9148 15.27 52.9148 13.65C52.9148 12.05 53.2648 10.68 53.9648 9.54C54.6848 8.4 55.6148 7.52 56.7548 6.9C57.8948 6.28 59.1148 5.97 60.4148 5.97C61.8548 5.97 63.0748 6.27 64.0748 6.87C65.0748 7.45 65.8348 8.26 66.3548 9.3C66.8948 10.32 67.1648 11.52 67.1648 12.9C67.1648 13.2 67.1548 13.5 67.1348 13.8C67.1148 14.08 67.0848 14.32 67.0448 14.52H54.9848V12.33H65.1848L64.5248 13.05C64.5248 11.47 64.1648 10.29 63.4448 9.51C62.7248 8.71 61.7448 8.31 60.5048 8.31C59.6448 8.31 58.8548 8.52 58.1348 8.94C57.4348 9.34 56.8748 9.94 56.4548 10.74C56.0348 11.52 55.8248 12.49 55.8248 13.65C55.8248 14.85 56.0548 15.85 56.5148 16.65C56.9948 17.43 57.6348 18.02 58.4348 18.42C59.2548 18.82 60.1948 19.02 61.2548 19.02C62.0748 19.02 62.8248 18.91 63.5048 18.69C64.1848 18.45 64.8548 18.13 65.5148 17.73L66.5648 19.62C65.8248 20.12 64.9748 20.54 64.0148 20.88C63.0548 21.2 62.0048 21.36 60.8648 21.36ZM71.4431 21V1.35H76.4231C78.3831 1.35 80.0431 1.72 81.4031 2.46C82.7831 3.2 83.8331 4.3 84.5531 5.76C85.2731 7.2 85.6331 8.98 85.6331 11.1C85.6331 13.22 85.2731 15.02 84.5531 16.5C83.8331 17.98 82.8031 19.1 81.4631 19.86C80.1231 20.62 78.4931 21 76.5731 21H71.4431ZM74.4431 18.57H76.2431C77.6231 18.57 78.7731 18.29 79.6931 17.73C80.6331 17.15 81.3431 16.31 81.8231 15.21C82.3031 14.11 82.5431 12.74 82.5431 11.1C82.5431 9.46 82.3031 8.1 81.8231 7.02C81.3431 5.94 80.6331 5.13 79.6931 4.59C78.7731 4.05 77.6231 3.78 76.2431 3.78H74.4431V18.57ZM96.8414 21.36C95.3614 21.36 94.0114 21.06 92.7914 20.46C91.5914 19.86 90.6414 18.98 89.9414 17.82C89.2414 16.66 88.8914 15.27 88.8914 13.65C88.8914 12.05 89.2414 10.68 89.9414 9.54C90.6614 8.4 91.5914 7.52 92.7314 6.9C93.8714 6.28 95.0914 5.97 96.3914 5.97C97.8314 5.97 99.0514 6.27 100.051 6.87C101.051 7.45 101.811 8.26 102.331 9.3C102.871 10.32 103.141 11.52 103.141 12.9C103.141 13.2 103.131 13.5 103.111 13.8C103.091 14.08 103.061 14.32 103.021 14.52H90.9614V12.33H101.161L100.501 13.05C100.501 11.47 100.141 10.29 99.4214 9.51C98.7014 8.71 97.7214 8.31 96.4814 8.31C95.6214 8.31 94.8314 8.52 94.1114 8.94C93.4114 9.34 92.8514 9.94 92.4314 10.74C92.0114 11.52 91.8014 12.49 91.8014 13.65C91.8014 14.85 92.0314 15.85 92.4914 16.65C92.9714 17.43 93.6114 18.02 94.4114 18.42C95.2314 18.82 96.1714 19.02 97.2314 19.02C98.0514 19.02 98.8014 18.91 99.4814 18.69C100.161 18.45 100.831 18.13 101.491 17.73L102.541 19.62C101.801 20.12 100.951 20.54 99.9914 20.88C99.0314 21.2 97.9814 21.36 96.8414 21.36ZM112.31 21L106.31 6.33H109.31L112.4 14.31C112.68 15.03 112.95 15.76 113.21 16.5C113.47 17.22 113.72 17.94 113.96 18.66H114.08C114.34 17.94 114.59 17.22 114.83 16.5C115.07 15.76 115.33 15.03 115.61 14.31L118.7 6.33H121.55L115.67 21H112.31ZM126.038 19.68V16.89L134.798 11.1V10.98L126.038 5.19V2.4L137.348 9.96V12.12L126.038 19.68Z" fill="#E5E5E5"/>
</svg>
